<?xml version="1.0" encoding="UTF-8"?>
<svg width="118px" height="118px" viewBox="0 0 118 118" version="1.1" xmlns="http://www.w3.org/2000/svg" xmlns:xlink="http://www.w3.org/1999/xlink">
    <!-- Generator: Sketch 54.1 (76490) - https://sketchapp.com -->
    <title>Group</title>
    <desc>Created with Sketch.</desc>
    <g id="Page-1" stroke="none" stroke-width="1" fill="none" fill-rule="evenodd">
        <g id="Desktop-HD" transform="translate(-100.000000, -3689.000000)" fill="#EA7033">
            <g id="Group-14" transform="translate(100.000000, 3683.000000)">
                <g id="Group" transform="translate(0.000000, 6.000000)">
                    <path d="M118,25.1396384 L118,0 C100.615844,11.3485524 86.8913592,27.1506518 76.8265457,47.4062982 C68.0146314,66.8634171 62.0724495,85.7779101 59,104.149777 C51.2185127,92.2846948 42.2124923,82.0847126 31.9819388,73.5498305 C21.7513853,65.0149484 11.090739,58.2272257 0,53.1866625 L0,94.787508 C10.9842547,95.5769547 20.7916952,97.8588032 29.4223217,101.633053 C38.0529481,105.407304 45.9389417,110.862953 53.0803024,118 L67.1111949,118 C72.8408527,104.29983 79.2479086,91.4325934 86.3323624,79.3982918 C96.4316199,63.066469 106.987499,53.3601307 118,50.2792769 L118,25.1396384 L118,118 L0,118 L0,0 L118,0 L118,25.1396384 Z" id="Combined-Shape"></path>
                </g>
            </g>
        </g>
    </g>
</svg>